# xmcd
#
# Track frame offsets: 
#        150
#        18532
#        33037
#        49606
#        68617
#        83937
#        97553
#        112814
#        129593
#        145338
#        158714
#
# Disc length: 2358 seconds
#
# Revision: 0
# Processed by: cddbd v1.5.2PL0 Copyright (c) Steve Scherf et al.
# Submitted via: ExactAudioCopy v0.95a5
#
DISCID=7b09340b
DTITLE=Amy Chappell - Kansas
DYEAR=2006
DGENRE=Country
TTITLE0=Leaving Memphis Alone
TTITLE1=Makin' Hay
TTITLE2=Right Kind of Tears
TTITLE3=Shame on Love
TTITLE4=You Could Be the One
TTITLE5=Different Truck
TTITLE6=The Good Times
TTITLE7=A Lot to Lose
TTITLE8=What I'd Do
TTITLE9=Where It Used to Break
TTITLE10=Kansas
EXTD=www.amychappell.com\nProduced by Brian Eckert and Amy Chappell
EXTT0=
EXTT1=
EXTT2=
EXTT3=
EXTT4=
EXTT5=
EXTT6=
EXTT7=
EXTT8=
EXTT9=
EXTT10=
PLAYORDER=
